# xmcd
#
# Track frame offsets:
#	150
#	18120
#	41004
#	57632
#	73138
#	91914
#	111069
#	127633
#	146603
#	163956
#
# Disc length: 2390 seconds
#
# Revision: 1
# Processed by: cddbd v1.5.1PL0 Copyright (c) Steve Scherf et al.
# Submitted via: audiograbber 1.83.01
#
DISCID=8609540a
DTITLE=Joey Pearson - Something To Say
DYEAR=2002
DGENRE=
TTITLE0=You're Worth The Time
TTITLE1=My Dream
TTITLE2=Looked My Way
TTITLE3=Good Like Anything
TTITLE4=Don't Give Up
TTITLE5=Younger Generation
TTITLE6=Candle Light The Way
TTITLE7=I'll Be Your Friend
TTITLE8=I Know What Love Is
TTITLE9=Once In A Lifetime
EXTD=
EXTT0=
EXTT1=
EXTT2=
EXTT3=
EXTT4=
EXTT5=
EXTT6=
EXTT7=
EXTT8=
EXTT9=
PLAYORDER=
